<mxfile host="app.diagrams.net" modified="2023-10-21T03:37:39.867Z" agent="Mozilla/5.0 (Macintosh; Intel Mac OS X 10_15_7) AppleWebKit/537.36 (KHTML, like Gecko) Chrome/118.0.0.0 Safari/537.36" version="21.6.8" etag="5LJXYidt4-0kihhEEEvs" type="github">
  <diagram name="Page-1" id="tuluPmOpjuSv8JcND3uV">
    <mxGraphModel>
      <root>
        <mxCell id="0" />
        <mxCell id="1" parent="0" />
      </root>
    </mxGraphModel>
  </diagram>
</mxfile>
